<svg aria-hidden="true" style="position: absolute; width: 0; height: 0; overflow: hidden;" version="1.1" xmlns="http://www.w3.org/2000/svg" xmlns:xlink="http://www.w3.org/1999/xlink">
<defs>
<symbol id="icon-star-icon" viewBox="0 0 34 32">
<path d="M32.404 11.487c-0.102-0.296-0.29-0.556-0.541-0.749s-0.553-0.308-0.869-0.333l-9.261-0.725-4.008-8.736c-0.128-0.281-0.335-0.52-0.598-0.688s-0.569-0.257-0.882-0.257c-0.313-0-0.619 0.089-0.882 0.256s-0.471 0.406-0.599 0.687l-4.008 8.737-9.261 0.725c-0.311 0.024-0.609 0.136-0.857 0.323s-0.437 0.439-0.543 0.728c-0.106 0.289-0.125 0.602-0.055 0.902s0.226 0.573 0.449 0.787l6.844 6.57-2.421 10.321c-0.074 0.312-0.050 0.639 0.068 0.938s0.324 0.556 0.592 0.739c0.268 0.182 0.585 0.281 0.911 0.283s0.645-0.092 0.915-0.27l8.845-5.807 8.845 5.807c0.277 0.181 0.603 0.274 0.935 0.267s0.654-0.114 0.922-0.307c0.268-0.193 0.47-0.462 0.579-0.771s0.118-0.644 0.028-0.958l-2.971-10.238 7.369-6.53c0.482-0.429 0.66-1.097 0.452-1.704z"></path>
</symbol>
<symbol id="icon-check-icon" viewBox="0 0 45 32">
<path d="M42.17 0.638c-0.834-0.851-2.188-0.851-3.022 0l-25.606 26.102-9.843-10.033c-0.835-0.851-2.188-0.851-3.023 0s-0.835 2.23 0 3.081l11.354 11.574c0.834 0.851 2.189 0.85 3.023 0l27.117-27.643c0.835-0.851 0.835-2.23 0-3.081z"></path>
</symbol>
<symbol id="icon-logo" viewBox="0 0 36 32">
<path d="M2.785 30.323c-1.532 0-2.785-1.241-2.785-2.757v-9.639h7.010v-0.011h4.213c1.086-0.028 2.005-0.965 2.005-2.068 0-1.13-0.947-2.068-2.089-2.068l-11.14 0.002v-2.759c0-1.516 1.253-2.757 2.785-2.757h8.355c2.117 0 3.927 0.744 5.403 2.233 1.504 1.461 2.256 3.253 2.256 5.349 0 2.068-0.724 3.86-2.2 5.321s-3.258 2.233-5.347 2.261h-5.681v4.136c0 1.516-1.253 2.757-2.785 2.757z"></path>
<path d="M22.309 5.067c3.077 2.959 4.627 6.644 4.627 10.832 0 4.118-1.486 7.8-4.515 10.768l-4.301-4.006c1.884-1.846 2.809-4.068 2.809-6.761 0-2.714-0.953-4.933-2.882-6.788l4.262-4.044z"></path>
<path d="M28.894 0c4.432 4.38 6.662 9.812 6.662 16.046 0 6.136-2.14 11.564-6.499 15.954l-4.151-4.015c3.247-3.27 4.838-7.236 4.838-11.939 0-4.75-1.645-8.713-4.962-11.992l4.113-4.053z"></path>
<path d="M0 23.454h5.57v4.113c0 1.516-1.253 2.757-2.785 2.757s-2.785-1.241-2.785-2.757v-4.113z"></path>
</symbol>
<symbol id="icon-time" viewBox="0 0 26 32">
<path d="M23.664 2.689h1.614c0.302 0 0.538-0.235 0.538-0.538v-1.076c0-0.303-0.235-0.538-0.538-0.538h-24.74c-0.303 0-0.538 0.235-0.538 0.538v1.076c0 0.303 0.235 0.538 0.538 0.538h1.613c0 6.219 2.975 10.723 6.269 12.908-3.294 2.185-6.269 6.689-6.269 12.908h-1.613c-0.303 0-0.538 0.235-0.538 0.538v1.076c0 0.302 0.235 0.538 0.538 0.538h24.74c0.302 0 0.538-0.235 0.538-0.538v-1.076c0-0.302-0.235-0.538-0.538-0.538h-1.614c0-6.219-2.975-10.723-6.269-12.908 3.294-2.185 6.269-6.689 6.269-12.908zM21.513 2.689c0 2.454-0.555 4.622-1.429 6.454h-14.353c-0.874-1.832-1.429-4-1.429-6.454h17.21zM20.555 23.126h-15.294c1.244-3.244 3.479-5.546 5.714-6.454h3.866c2.235 0.908 4.471 3.21 5.714 6.454z"></path>
</symbol>
<symbol id="icon-heart" viewBox="0 0 34 32">
<path d="M17.067 30.172c0.305 0 0.61-0.114 0.838-0.343l11.867-11.428c0.171-0.171 4.362-4 4.362-8.571 0-5.581-3.41-8.914-9.105-8.914-3.333 0-6.457 2.629-7.962 4.114-1.505-1.486-4.629-4.114-7.962-4.114-5.695 0-9.105 3.333-9.105 8.914 0 4.571 4.191 8.4 4.343 8.533l11.886 11.467c0.229 0.229 0.533 0.343 0.838 0.343z"></path>
</symbol>
<symbol id="icon-wave" viewBox="0 0 41 32">
<path d="M21.673 12.898l2.674 1.245 3.98-1.184v-2.775c0-4.714-3.98-8.49-8.735-8.49-4.735 0-8.735 3.755-8.735 8.429v12.653c0 1.163-0.939 2.082-2.082 2.082s-2.082-0.918-2.082-2.082v-5.347h-6.694c0 5.367 0 5.429 0 5.429 0 4.837 3.918 8.755 8.755 8.755 4.796 0 8.755-3.857 8.755-8.633v-12.49c0-1.143 0.939-2.082 2.082-2.082s2.082 0.939 2.082 2.082v2.408zM32.49 17.429v5.612c0 1.143-0.939 2.061-2.082 2.061s-2.082-0.918-2.082-2.061v-5.51l-3.98 1.184-2.674-1.245v5.469c0 4.796 3.939 8.674 8.755 8.674 4.837 0 8.755-3.918 8.755-8.755 0 0 0-0.061 0-5.429h-6.694z"></path>
</symbol>
<symbol id="icon-cursor" viewBox="0 0 21 32">
<path d="M19.042 18.067l-17.21-17.21c-0.202-0.219-0.471-0.319-0.756-0.319-0.134 0-0.286 0.034-0.403 0.084-0.403 0.168-0.672 0.555-0.672 0.992v25.277c0 0.437 0.269 0.824 0.672 0.992 0.118 0.050 0.269 0.084 0.403 0.084 0.286 0 0.555-0.118 0.756-0.319l5.244-5.244 3.21 7.597c0.235 0.538 0.857 0.807 1.412 0.571l2.975-1.261c0.538-0.235 0.807-0.857 0.571-1.412l-3.378-8h6.42c0.437 0 0.824-0.269 0.992-0.672 0.168-0.387 0.084-0.857-0.235-1.16z"></path>
</symbol>
<symbol id="icon-triangle" viewBox="0 0 28 32">
<path d="M26.088 12.891c2.441 1.354 2.441 4.864 0 6.218l-21.155 11.739c-2.37 1.315-5.281-0.399-5.281-3.109v-23.477c0-2.71 2.911-4.424 5.281-3.109l21.155 11.739z"></path>
</symbol>
</defs>
</svg>
